<svg width="32" height="32" viewBox="0 0 32 32" fill="none" xmlns="http://www.w3.org/2000/svg">
  <style>
    path {
      fill: black;
    }
    @media (prefers-color-scheme: dark) {
      path {
        fill: white;
      }
    }
  </style>
  <path d="M22.398 15.5294L27.1155 11.1176C27.5283 10.7647 27.8231 10.2941 27.8231 9.70588C27.8231 8.82353 27.1155 8 26.113 8C25.5233 8 25.0516 8.29412 24.5209 8.70588L18.0344 15.1765V10.0588C18.0344 9 17.2678 8.23529 16.2064 8.23529H10.3096C8.18673 8.23529 6.47666 8.82353 5.41523 9.94118C4.47174 10.8824 4 12.1765 4 13.7647C4 16.4118 5.2973 18 7.36118 18.8235L4.76658 21.9412C4.41278 22.4118 4.1769 22.7647 4.1769 23.2941C4.1769 24.3529 5.06142 25 5.94595 25C6.7715 25 7.36118 24.5882 7.77396 24L11.371 19.4118H14.2604V23.0588C14.2604 24.1176 15.027 24.8824 16.0885 24.8824C17.1499 24.8824 17.9165 24.1176 17.9165 23.0588V19.4706L19.6855 17.8235L24.5209 24.1176C24.9337 24.7059 25.3464 25 26.113 25C27.1744 25 28 24.2353 28 23.2353C28 22.6471 27.8231 22.2941 27.5283 21.9412L22.398 15.5294ZM14.3194 16.2941H10.5455C8.77641 16.2941 7.71499 15.2941 7.71499 13.9412C7.71499 12.3529 8.83538 11.5882 10.6044 11.5882H14.3194V16.2941Z"/>
</svg>
